<svg width="48" height="48" fill="none" xmlns="http://www.w3.org/2000/svg"><g clip-path="url(#clip0)"><path d="M48 0H0v48h48V0z" fill="url(#paint0_linear)"/><path fill-rule="evenodd" clip-rule="evenodd" d="M9 20.25a3.75 3.75 0 111.253-7.286l-.002-.09-.001-.124a7.5 7.5 0 0114.58-2.482 5 5 0 11.42 9.982H9z" fill="#fff"/><path d="M18 30L-3 51" stroke="#067333" stroke-width="3.75" stroke-linecap="round" stroke-linejoin="round"/><path d="M15.237 23.47c7.2-7.178 17.17-13.147 25.152-15.673l-.049.155s0 0 0 0c-2.553 7.956-8.491 17.845-15.623 24.998-3.117 3.125-6.138 5.387-8.783 6.461-2.644 1.074-4.902.959-6.51-.649-1.607-1.607-1.722-3.865-.648-6.51 1.074-2.644 3.336-5.666 6.461-8.782z" fill="#067333" stroke="#067333" stroke-width=".094"/><path d="M26.597 4.686c-2.207 11.156-8.092 24.91-17.205 34.043-1.144-1.18-1.284-3.255-.676-5.88.613-2.648 1.982-5.837 3.814-9.193 3.637-6.663 9.095-13.97 14.067-18.97z" fill="#067333" stroke="#067333" stroke-width=".094"/><path fill-rule="evenodd" clip-rule="evenodd" d="M32.343 12a3.75 3.75 0 012.962 6.05 3.123 3.123 0 01-.74 4.761 3 3 0 01-1.018 4.612 3.75 3.75 0 01-3.674 4.076l-.06.001h-1.577a2.25 2.25 0 01-1.667 3.718h-6.322a3.75 3.75 0 01-3.685 3.594h-5.218a2.344 2.344 0 01-.558-4.62 2.344 2.344 0 011.853-4.052 2.336 2.336 0 01-.733-1.703c0-.618.24-1.18.63-1.599a3.126 3.126 0 112.906-5.436 5 5 0 015.792-4.334 5.002 5.002 0 017.718-2.92A3.75 3.75 0 0132.343 12z" fill="url(#paint1_radial)"/><path d="M31.816 30.697c2.596-.312 5.23-.629 7.882-1.135-4.64 2.95-10.976 6.768-16.851 9.198-2.982 1.233-5.843 2.107-8.3 2.329-2.439.22-4.473-.203-5.839-1.544 4.573-4.558 9.574-6.52 14.83-7.614 2.634-.549 5.333-.88 8.074-1.21l.204-.024zm-15.56-6.048c-1.094 5.256-3.056 10.257-7.614 14.83-1.34-1.367-1.764-3.4-1.544-5.838.222-2.458 1.096-5.319 2.329-8.3 2.43-5.876 6.249-12.213 9.198-16.852-.506 2.652-.823 5.286-1.136 7.882l-.024.204c-.33 2.741-.66 5.44-1.209 8.074z" fill="#067333" stroke="#067333" stroke-width=".094"/><path fill-rule="evenodd" clip-rule="evenodd" d="M25.664 41.25a4.102 4.102 0 112.508-7.347 6.563 6.563 0 116.515 7.347h-9.023z" fill="#fff"/></g><defs><radialGradient id="paint1_radial" cx="0" cy="0" r="1" gradientUnits="userSpaceOnUse" gradientTransform="matrix(27.0938 0 0 26.8125 22.547 12)"><stop stop-color="#FFF2CB"/><stop offset="1" stop-color="#FFD24D"/></radialGradient><linearGradient id="paint0_linear" x1="48" y1="0" x2="0" y2="48" gradientUnits="userSpaceOnUse"><stop stop-color="#40BF75"/><stop offset="1" stop-color="#24A85B"/></linearGradient><clipPath id="clip0"><path d="M0 0h48v48H0V0z" fill="#fff"/></clipPath></defs></svg>